# xmcd
#
# Track frame offsets:
#	150
#	12063
#	28864
#	40045
#	54735
#	73097
#	94558
#	109507
#	129266
#	146204
#	165364
#	181730
#	198316
#	212779
#	234113
#	249196
#	261116
#	268947
#	274035
#	280672
#
# Disc length: 3890 seconds
#
# Revision: 1
# Processed by: cddbd v1.5.2PL0 Copyright (c) Steve Scherf et al.
# Submitted via: audiograbber 1.83.01
#
DISCID=100f3014
DTITLE=MIXED - COUNTRY SE 50 GROOTSTE TREFFERS
DYEAR=1900
DGENRE=Country
TTITLE0=NICHOLIS LOUW - ARMS OF MARY
TTITLE1=RAY DYLAN and NIKKI LALO - FROM THIS MOMENT
TTITLE2=PIETER NAUDE - LITTLE BITTY
TTITLE3=BILLY FOREST - TINY BUBBLES
TTITLE4=LANCE JAMES - 10000 ANGELS CRIED
TTITLE5=KENNY OLIVER - CITY OF NEW ORLEANS
TTITLE6=RIAN UNGERER - SHALALA (I NEED YOU)
TTITLE7=DEAN ROBERTS - WHEN YOU TELL ME THAT YOU LOVE ME
TTITLE8=PETE WILSON - SOMEBODY LIKE YOU
TTITLE9=KELLY NASHVILLE - HOW DO I LIVE
TTITLE10=CHRIS NORMAN - DANGEROUS HEART
TTITLE11=HANK GOLDWYN - ALWAYS ON MY MIND
TTITLE12=DON STETSON - DARLIN
TTITLE13=SANDY KENT - FOREVER AND FOR ALWAYS
TTITLE14=HOUSE OF COWBOYS - COUNTRY ROADS
TTITLE15=JOHNY CASH - I WALK THE LINE
TTITLE16=HILLBILLY BAND - ME and BOBY MC GEE
TTITLE17=HILLBILLY BAND - YOUR CHEATIN HEART
TTITLE18=HILLBILLY BAND - I FALL TO PIECES
TTITLE19=HILLBILLY BAND - TAKE ME BACK
EXTD=
EXTT0=
EXTT1=
EXTT2=
EXTT3=
EXTT4=
EXTT5=
EXTT6=
EXTT7=
EXTT8=
EXTT9=
EXTT10=
EXTT11=
EXTT12=
EXTT13=
EXTT14=
EXTT15=
EXTT16=
EXTT17=
EXTT18=
EXTT19=
PLAYORDER=
